<svg xmlns="http://www.w3.org/2000/svg" width="16.032" height="16.032" viewBox="0 0 16.032 16.032">
  <path id="instagram" d="M8.016,1.425a24.579,24.579,0,0,1,3.206.089,4.131,4.131,0,0,1,1.514.267A3.128,3.128,0,0,1,14.251,3.3a4.131,4.131,0,0,1,.267,1.514c0,.8.089,1.069.089,3.206a24.579,24.579,0,0,1-.089,3.206,4.131,4.131,0,0,1-.267,1.514,3.128,3.128,0,0,1-1.514,1.514,4.131,4.131,0,0,1-1.514.267c-.8,0-1.069.089-3.206.089a24.579,24.579,0,0,1-3.206-.089A4.131,4.131,0,0,1,3.3,14.251a3.128,3.128,0,0,1-1.514-1.514,4.131,4.131,0,0,1-.267-1.514c0-.8-.089-1.069-.089-3.206A24.579,24.579,0,0,1,1.514,4.81,4.131,4.131,0,0,1,1.781,3.3,3.2,3.2,0,0,1,2.4,2.4,1.506,1.506,0,0,1,3.3,1.781,4.131,4.131,0,0,1,4.81,1.514a24.579,24.579,0,0,1,3.206-.089M8.016,0a26.317,26.317,0,0,0-3.3.089A5.5,5.5,0,0,0,2.761.445a3.487,3.487,0,0,0-1.425.891A3.487,3.487,0,0,0,.445,2.761,4.058,4.058,0,0,0,.089,4.721,26.317,26.317,0,0,0,0,8.016a26.317,26.317,0,0,0,.089,3.3,5.5,5.5,0,0,0,.356,1.959A3.487,3.487,0,0,0,1.336,14.7a3.487,3.487,0,0,0,1.425.891,5.5,5.5,0,0,0,1.959.356,26.317,26.317,0,0,0,3.3.089,26.317,26.317,0,0,0,3.3-.089,5.5,5.5,0,0,0,1.959-.356,3.737,3.737,0,0,0,2.316-2.316,5.5,5.5,0,0,0,.356-1.959c0-.891.089-1.158.089-3.3a26.317,26.317,0,0,0-.089-3.3,5.5,5.5,0,0,0-.356-1.959A3.487,3.487,0,0,0,14.7,1.336,3.487,3.487,0,0,0,13.271.445,5.5,5.5,0,0,0,11.312.089,26.317,26.317,0,0,0,8.016,0m0,3.919a4.031,4.031,0,0,0-4.1,4.1,4.1,4.1,0,1,0,4.1-4.1m0,6.769A2.624,2.624,0,0,1,5.344,8.016,2.624,2.624,0,0,1,8.016,5.344a2.624,2.624,0,0,1,2.672,2.672,2.624,2.624,0,0,1-2.672,2.672m4.275-7.927a.98.98,0,1,0,.98.98.988.988,0,0,0-.98-.98" fill="#6a8062" fill-rule="evenodd"/>
</svg>
