<svg xmlns="http://www.w3.org/2000/svg" viewBox="0 0 56.6 60.48"><defs><style>.cls-1{fill:#6a8063;}</style></defs><title>logo</title><g id="Layer_2" data-name="Layer 2"><g id="Layer_1-2" data-name="Layer 1"><path class="cls-1" d="M55.81,53.19l-19-28.73V23.12a1,1,0,0,0-1-1h0a1,1,0,0,0-1,1v1.64a1.07,1.07,0,0,0,.16.55L44.29,39.4a15,15,0,0,0-7.06-1,7.74,7.74,0,0,1-2.25,0,10.89,10.89,0,0,1-3.55-1.56,15.83,15.83,0,0,0-3-1.49,41.17,41.17,0,0,1,.34-5.7A33.34,33.34,0,0,0,29,22.62a5,5,0,0,1,1.56-1.81c.42,0,.83.06,1.28.06,2.79,0,5.94-.82,7.31-4.83a26.84,26.84,0,0,1,1.33-3.45,1.07,1.07,0,0,0-.11-1.22,1.31,1.31,0,0,0-1.18-.32,28.36,28.36,0,0,1-3.61,1,7.16,7.16,0,0,0-6.34,7.28c-.19.16-.39.33-.58.51-.18-1.13-.43-2.37-.77-3.76,1.65-6.2.19-10.2-4.76-12.94A39.15,39.15,0,0,1,18.45.25a1.12,1.12,0,0,0-1.26-.1,1.1,1.1,0,0,0-.54,1.14,31.41,31.41,0,0,1,.45,5.53A10.06,10.06,0,0,0,26,17.42,7.11,7.11,0,0,1,26.48,19s0,0,0,.06c.24,1.28.4,2.41.49,3.43,0,0,0,0,0,.06h0a32.78,32.78,0,0,1-.21,6.81,43,43,0,0,0-.36,5.47c-1.88-.11-3.38.89-4.72,1.79a6.82,6.82,0,0,1-3.09,1.46A7,7,0,0,0,14.83,40a13.78,13.78,0,0,1-4.62,2.65L21.67,25.32a1,1,0,0,0,.17-.55V20.12a1,1,0,0,0-2,0v4.35L.79,53.22A4.59,4.59,0,0,0,.57,58a4.59,4.59,0,0,0,4.12,2.47h47.2a4.7,4.7,0,0,0,3.92-7.29ZM35.85,14a15.25,15.25,0,0,0,2.08-.45c-.2.53-.42,1.16-.66,1.86-.88,2.56-2.66,3.6-6,3.46A5.13,5.13,0,0,1,35.85,14ZM19.1,6.91A26,26,0,0,0,18.9,3c.77.47,1.82,1.09,3.28,1.89,3.59,2,4.89,4.63,4.2,8.82a42.39,42.39,0,0,0-3-4.52,1,1,0,1,0-1.57,1.24,38.9,38.9,0,0,1,3.11,4.75A7.94,7.94,0,0,1,19.1,6.91ZM54.27,57.06a2.67,2.67,0,0,1-2.38,1.42H4.69a2.68,2.68,0,0,1-2.23-4.16L8.6,45.05a15.17,15.17,0,0,0,7.46-3.5,5.51,5.51,0,0,1,2.72-1.49,8.42,8.42,0,0,0,4-1.79c1.33-.9,2.48-1.67,3.85-1.41a10.8,10.8,0,0,1,3.73,1.62,12.5,12.5,0,0,0,4.19,1.8,9.88,9.88,0,0,0,2.79.08c1.74-.14,3.72-.29,8.83,2l7.92,12A2.66,2.66,0,0,1,54.27,57.06Z"/><path class="cls-1" d="M41.27,43.53a.84.84,0,0,0-.84-.83.84.84,0,0,0,0,1.67A.84.84,0,0,0,41.27,43.53Z"/><circle class="cls-1" cx="46.25" cy="45.82" r="0.83"/><circle class="cls-1" cx="41.27" cy="48.23" r="0.83"/><path class="cls-1" d="M46.25,49.06a.84.84,0,0,0-.83.84.83.83,0,0,0,.83.83.84.84,0,0,0,.84-.83A.85.85,0,0,0,46.25,49.06Z"/><circle class="cls-1" cx="36.77" cy="43.53" r="0.83"/></g></g></svg>