<svg xmlns="http://www.w3.org/2000/svg" width="16.032" height="13.004" viewBox="0 0 16.032 13.004">
  <path id="twitter" d="M43.077,15a9.269,9.269,0,0,0,9.352-9.352V5.206a7.24,7.24,0,0,0,1.6-1.692,7.394,7.394,0,0,1-1.87.534,3.465,3.465,0,0,0,1.425-1.781,8.17,8.17,0,0,1-2.049.8A3.181,3.181,0,0,0,49.134,2a3.346,3.346,0,0,0-3.3,3.3,1.737,1.737,0,0,0,.089.713,9.209,9.209,0,0,1-6.769-3.474,3.411,3.411,0,0,0-.445,1.692,3.539,3.539,0,0,0,1.425,2.761,3,3,0,0,1-1.514-.445h0A3.255,3.255,0,0,0,41.3,9.749a2.746,2.746,0,0,1-.891.089,1.516,1.516,0,0,1-.623-.089A3.374,3.374,0,0,0,42.9,12.065a6.725,6.725,0,0,1-4.1,1.425A2.466,2.466,0,0,1,38,13.4,8.407,8.407,0,0,0,43.077,15" transform="translate(-38 -2)" fill="#6a8062" fill-rule="evenodd"/>
</svg>
